<svg width="280" height="280" viewBox="0 0 280 280" fill="none" xmlns="http://www.w3.org/2000/svg">
<rect width="280" height="280" rx="50" fill="white"/>
<path d="M235.036 204.441C235.541 204.662 235.988 204.994 236.344 205.414C236.701 205.836 236.958 206.326 237.096 206.861C237.235 207.396 237.251 207.955 237.144 208.497C235.056 218.64 229.31 227.659 221 233.839C214.338 238.604 206.419 241.298 198.233 241.585H57.0363C56.3588 241.588 55.6937 241.403 55.1155 241.05C54.5374 240.696 54.0691 240.189 53.7631 239.585L42.3798 216.825C42.1073 216.278 41.9777 215.671 42.0031 215.061C42.0286 214.45 42.2082 213.856 42.5252 213.334C42.8374 212.815 43.2729 212.38 43.7931 212.069C44.3133 211.759 44.9021 211.581 45.5075 211.552L233.435 204.141C233.984 204.118 234.532 204.221 235.036 204.441Z" fill="url(#paint0_linear_27_384)"/>
<path d="M58.2364 196.032C66.1996 193.103 74.6692 191.8 83.1445 192.2C91.6199 192.6 99.9291 194.694 107.581 198.359C108.039 198.581 108.538 198.702 109.046 198.715C109.554 198.728 110.059 198.631 110.527 198.432C111.003 198.245 111.431 197.955 111.783 197.585C112.135 197.214 112.401 196.771 112.564 196.287C116.984 183.954 120.044 171.177 121.692 158.181C125.605 125.09 120.712 91.5535 107.509 60.9593C107.168 60.2131 106.586 59.6031 105.857 59.2272C105.128 58.8513 104.294 58.7313 103.488 58.8865C102.682 59.0417 101.952 59.4631 101.415 60.083C100.878 60.703 100.565 61.4854 100.526 62.3047C99.58 108.927 83.2844 153.936 54.1632 190.359C53.6888 190.981 53.4266 191.739 53.4152 192.521C53.4039 193.303 53.644 194.068 54.1001 194.703C54.5563 195.338 55.2044 195.81 55.9491 196.05C56.6937 196.289 57.4955 196.283 58.2364 196.032Z" fill="url(#paint1_linear_27_384)"/>
<path d="M129.181 97.1738C136.939 129.578 135.081 163.54 123.834 194.905C123.612 195.589 123.595 196.324 123.787 197.018C123.979 197.711 124.37 198.333 124.913 198.806C125.456 199.279 126.126 199.582 126.839 199.677C127.553 199.772 128.278 199.655 128.926 199.341C146.647 190.331 166.145 185.364 186.017 184.796C198.691 184.424 211.352 185.869 223.615 189.087C224.183 189.228 224.777 189.232 225.347 189.097C225.917 188.962 226.446 188.693 226.891 188.313C227.336 187.932 227.683 187.45 227.904 186.908C228.125 186.366 228.213 185.779 228.161 185.196C221.906 114.577 168 56.3084 109.432 38.1629C108.714 37.941 107.944 37.9459 107.229 38.1769C106.513 38.4079 105.886 38.8539 105.433 39.454C104.98 40.0541 104.722 40.7793 104.696 41.5308C104.67 42.2823 104.876 43.0236 105.286 43.6538C116.354 59.9404 124.444 78.0612 129.181 97.1738Z" fill="url(#paint2_linear_27_384)"/>
<defs>
<linearGradient id="paint0_linear_27_384" x1="358.061" y1="-146.196" x2="60.2538" y2="200.224" gradientUnits="userSpaceOnUse">
<stop stop-color="#666666"/>
<stop offset="1"/>
</linearGradient>
<linearGradient id="paint1_linear_27_384" x1="358.061" y1="-146.196" x2="60.2538" y2="200.224" gradientUnits="userSpaceOnUse">
<stop stop-color="#666666"/>
<stop offset="1"/>
</linearGradient>
<linearGradient id="paint2_linear_27_384" x1="358.061" y1="-146.196" x2="60.2538" y2="200.224" gradientUnits="userSpaceOnUse">
<stop stop-color="#666666"/>
<stop offset="1"/>
</linearGradient>
</defs>
</svg>
